# 3ds Max Wavefront OBJ Exporter v0.99 - (c)2007 guruware
# File Created: 26.11.2024 21:17:36

mtllib 23.mtl

#
# object 1
#

v  -10.9321 7.6473 26.3050
v  -10.9321 7.6473 21.3280
v  -10.9321 0.8078 21.3280
v  -10.9321 0.8078 26.3050
v  -8.1407 6.4797 20.2680
v  -0.4602 7.6473 21.3280
v  -0.4602 0.8078 21.3280
v  -4.9910 0.7984 19.6305
v  0.9658 7.6473 26.3050
v  -2.0084 7.6473 33.1889
v  -2.0084 0.8078 33.1889
v  0.9658 0.8078 26.3050
v  -6.1934 11.3534 32.8328
v  -7.5118 11.9163 39.3316
v  -7.2036 8.5538 39.5616
v  -7.2036 8.3564 32.4240
v  -7.2036 8.5538 21.5787
v  -1.8307 8.5538 22.9467
v  -5.2847 0.8078 26.3050
v  -6.6762 0.8078 32.5448
v  -10.9321 0.8078 32.5448
v  -10.9321 8.5538 32.4240
v  -10.9321 11.2951 32.3739
v  -10.9321 10.6831 27.5563
v  -10.9321 8.5538 27.0539
v  -10.9321 8.5538 22.9467
v  -0.6539 8.5538 27.0539
v  -2.5270 8.5538 32.4343
v  -10.9321 8.5538 39.5616
v  -10.9321 11.8345 39.2981
v  -10.9321 7.6473 32.5448
v  -2.6540 10.2302 23.9916
v  -1.6244 10.6831 27.5563
v  -3.0779 10.9003 31.9688
v  -6.6762 7.6473 32.5448
v  -7.5288 10.0794 22.8043
v  -6.6762 7.6473 39.6824
v  -6.6762 0.8078 39.6824
v  -10.9321 10.2302 23.9916
v  -10.9321 13.5100 32.5109
v  -10.9321 23.5705 32.1274
v  -10.9321 23.5964 28.5656
v  -10.9321 13.4041 29.2432
v  -3.6966 13.3451 26.3819
v  -2.9789 23.5627 24.3295
v  -1.7818 23.5627 28.5656
v  -2.8302 13.4439 29.2432
v  -10.9321 23.5713 25.1606
v  -10.9321 13.3490 26.0444
v  -8.1085 13.4306 25.0380
v  -7.8593 23.7491 23.9492
v  -10.9321 11.0392 28.1353
v  -10.9321 11.2960 32.1274
v  -7.8023 10.9442 24.1780
v  -10.9321 10.9442 25.1606
v  -2.6234 11.1597 28.5656
v  -3.3152 10.9442 25.2416
v  -3.3788 11.1693 31.6902
v  -10.9321 0.8078 39.6824
v  -10.9321 7.6473 39.6824
v  -10.9321 28.2570 30.5551
v  -10.9321 27.1401 23.9296
v  -3.2821 23.5627 30.8645
v  -3.5107 25.1325 30.6194
v  -5.8471 25.1059 31.2438
v  -7.8023 23.5571 32.1274
v  -6.5956 12.8950 32.6565
v  -3.3788 12.7487 31.5303
v  -3.8205 13.4513 31.3523
v  -7.7723 26.4489 23.3769
v  -3.4233 25.3475 24.1616
v  -10.9321 12.8553 32.1274
v  -10.9321 13.6601 39.2637
v  -10.9321 23.5763 39.2530
v  -6.9992 27.8192 29.5617
v  -2.3917 25.2203 28.5656
v  -10.9321 30.7174 23.9145
v  -9.5146 29.0243 23.8228
v  -10.9321 25.4715 32.1274
v  -7.7723 25.5215 32.1274
v  -7.8023 23.5627 39.2650
v  -7.7668 13.7095 39.2839
v  -7.3443 13.5302 32.8345
v  -7.7723 26.3973 37.8579
v  -10.9321 26.3989 38.8466
v  -10.9321 30.7174 29.3801
v  -6.9992 29.1171 29.6263
v  -10.9321 12.5917 25.1606
v  -7.8166 12.6361 24.1208
v  -2.4130 12.7511 28.5656
v  -3.2311 12.5895 25.1145
v  -10.9321 12.6692 28.5656
# 92 vertices

vn -1.0000 -0.0000 -0.0000
vn -0.6147 0.5064 -0.6048
vn -0.6431 -0.5929 -0.4847
vn -0.7071 -0.7071 -0.0000
vn -0.1595 0.2191 -0.9626
vn 0.5505 0.4936 -0.6732
vn 0.5781 -0.6176 -0.5333
vn 0.1105 -0.5728 -0.8122
vn 0.8848 0.4645 0.0378
vn 0.4666 0.3400 0.8165
vn 0.3951 -0.5930 0.7016
vn 0.7680 -0.6385 0.0496
vn 0.7237 -0.0069 0.6900
vn 0.6369 0.1120 0.7628
vn 0.6173 0.2814 0.7347
vn 0.7535 0.1222 0.6460
vn 0.0042 0.5718 -0.8204
vn 0.3880 0.8335 -0.3933
vn 0.0000 -1.0000 0.0007
vn 0.2573 -0.9201 0.2952
vn -1.0000 0.0000 -0.0000
vn -0.8404 0.3777 -0.3887
vn 0.7159 0.6973 0.0356
vn 0.4802 0.5572 0.6774
vn -0.7131 0.0744 0.6971
vn -0.7179 0.0348 0.6953
vn 0.4307 0.7398 -0.5169
vn 0.7069 0.7062 -0.0388
vn 0.6031 0.5487 0.5789
vn 0.5250 0.2529 0.8126
vn -0.0414 0.7250 -0.6875
vn 0.7170 0.2206 0.6612
vn 0.5773 -0.5774 0.5774
vn -0.7304 0.5044 -0.4606
vn 0.6742 0.4707 -0.5692
vn 0.6559 -0.0452 -0.7535
vn 0.9837 0.1207 0.1333
vn 0.9783 0.1150 0.1722
vn -0.8429 -0.1066 -0.5273
vn -0.8974 0.1562 -0.4126
vn -0.0537 0.3877 -0.9202
vn -0.1477 -0.1531 -0.9771
vn -0.0443 0.5029 -0.8632
vn -0.8933 0.2037 -0.4007
vn 0.8757 0.4808 0.0435
vn 0.6056 0.5801 -0.5448
vn 0.6304 0.5763 0.5201
vn -0.5774 -0.5774 0.5773
vn -0.6925 0.0477 0.7198
vn -0.6145 0.3644 0.6998
vn -0.7437 -0.0991 -0.6611
vn 0.5965 0.1051 0.7957
vn 0.4323 0.6931 0.5768
vn 0.3078 0.3822 0.8713
vn 0.8076 0.0587 0.5868
vn 0.6450 0.3431 0.6828
vn 0.7079 0.2928 0.6427
vn 0.6383 0.2855 0.7149
vn 0.2741 0.4950 -0.8245
vn 0.5614 0.5454 -0.6224
vn -0.7114 0.0071 0.7027
vn -0.6928 0.0521 0.7193
vn 0.6892 0.5322 0.4918
vn 0.7877 0.6047 0.1175
vn -0.2911 0.7929 -0.5352
vn 0.6498 0.5524 -0.5221
vn 0.2027 0.1687 -0.9646
vn -0.8608 0.4566 0.2247
vn 0.5093 0.6571 0.5557
vn 0.6569 0.1712 0.7343
vn 0.6476 0.0775 0.7580
vn 0.7924 0.3736 0.4822
vn 0.6398 0.7156 0.2803
vn -0.4991 0.6393 0.5850
vn -0.4826 0.7735 0.4107
vn 0.7428 0.4342 0.5096
vn -0.7315 0.3071 -0.6087
vn -0.0371 0.3771 -0.9254
vn 0.9736 0.2277 -0.0158
vn 0.6236 0.3900 -0.6775
# 80 vertex normals

vt 0.1037 0.1962 0.0000
vt 0.0093 0.1962 0.0000
vt 0.0093 0.0828 0.0000
vt 0.1037 0.0828 0.0000
vt 0.8429 0.1922 0.0000
vt 0.7203 0.1502 0.0000
vt 0.7472 0.0315 0.0000
vt 0.8361 0.0673 0.0000
vt 0.6414 0.1499 0.0000
vt 0.5187 0.1782 0.0000
vt 0.4904 0.0500 0.0000
vt 0.6159 0.0236 0.0000
vt 0.9799 0.5933 0.0000
vt 0.7661 0.5811 0.0000
vt 0.7675 0.5127 0.0000
vt 0.9658 0.5416 0.0000
vt 0.8054 0.2250 0.0000
vt 0.7108 0.1861 0.0000
vt 0.5473 0.3659 0.0000
vt 0.4802 0.3571 0.0000
vt 0.4764 0.3131 0.0000
vt 0.5423 0.3075 0.0000
vt 0.2197 0.2112 0.0000
vt 0.2188 0.2566 0.0000
vt 0.1274 0.2465 0.0000
vt 0.1179 0.2112 0.0000
vt 0.0400 0.2112 0.0000
vt 0.6302 0.1840 0.0000
vt 0.5258 0.1999 0.0000
vt 0.3550 0.2112 0.0000
vt 0.3500 0.2656 0.0000
vt 0.2220 0.1962 0.0000
vt 0.6995 0.2230 0.0000
vt 0.6255 0.2277 0.0000
vt 0.6180 0.3629 0.0000
vt 0.5949 0.3030 0.0000
vt 0.2220 0.0828 0.0000
vt 0.6041 0.4113 0.0000
vt 0.5514 0.4187 0.0000
vt 0.5378 0.2459 0.0000
vt 0.4404 0.2265 0.0000
vt 0.4421 0.2096 0.0000
vt 0.7899 0.2595 0.0000
vt 0.4775 0.4059 0.0000
vt 0.8807 0.2399 0.0000
vt 0.8622 0.2736 0.0000
vt 0.4027 0.0777 0.0000
vt 0.9401 0.1232 0.0000
vt 0.9757 0.5245 0.0000
vt 0.7775 0.4918 0.0000
vt 0.7775 0.3580 0.0000
vt 0.9757 0.3907 0.0000
vt 0.4824 0.2750 0.0000
vt 0.0598 0.2390 0.0000
vt 0.8394 0.3059 0.0000
vt 0.2214 0.2934 0.0000
vt 0.2141 0.4602 0.0000
vt 0.1465 0.4606 0.0000
vt 0.1594 0.2916 0.0000
vt 0.5907 0.6962 0.0000
vt 0.4238 0.7054 0.0000
vt 0.4196 0.6230 0.0000
vt 0.5840 0.6379 0.0000
vt 0.0820 0.4602 0.0000
vt 0.0987 0.2907 0.0000
vt 0.5613 0.7981 0.0000
vt 0.3922 0.8280 0.0000
vt 0.1384 0.2524 0.0000
vt 0.2141 0.2567 0.0000
vt 0.7776 0.2874 0.0000
vt 0.8277 0.3291 0.0000
vt 0.6069 0.2491 0.0000
vt 0.6831 0.2466 0.0000
vt 0.5406 0.2545 0.0000
vt 0.0820 0.2508 0.0000
vt 0.3573 0.0828 0.0000
vt 0.3573 0.1962 0.0000
vt 0.1843 0.5379 0.0000
vt 0.0586 0.5193 0.0000
vt 0.4128 0.5719 0.0000
vt 0.3866 0.5968 0.0000
vt 0.3749 0.5393 0.0000
vt 0.3979 0.4987 0.0000
vt 0.5886 0.5074 0.0000
vt 0.6160 0.5000 0.0000
vt 0.6363 0.5651 0.0000
vt 0.6041 0.5681 0.0000
vt 0.5889 0.5785 0.0000
vt 0.5421 0.8684 0.0000
vt 0.3841 0.8870 0.0000
vt 0.3432 0.8200 0.0000
vt 0.3809 0.7213 0.0000
vt 0.2141 0.2825 0.0000
vt 0.3494 0.2959 0.0000
vt 0.3492 0.4603 0.0000
vt 0.1564 0.7818 0.0000
vt 0.1488 0.7126 0.0000
vt 0.1984 0.6859 0.0000
vt 0.2413 0.6903 0.0000
vt 0.2803 0.8539 0.0000
vt 0.3220 0.7702 0.0000
vt 0.2821 0.9450 0.0000
vt 0.2053 0.9580 0.0000
vt 0.2300 0.9152 0.0000
vt 0.0797 0.8399 0.0000
vt 0.0499 0.7825 0.0000
vt 0.1010 0.7357 0.0000
vt 0.9589 0.8306 0.0000
vt 0.7606 0.8108 0.0000
vt 0.7610 0.6177 0.0000
vt 0.9508 0.6417 0.0000
vt 0.2141 0.4917 0.0000
vt 0.3914 0.6537 0.0000
vt 0.3162 0.8999 0.0000
vt 0.3257 0.8337 0.0000
vt 0.3654 0.5052 0.0000
vt 0.6700 0.5133 0.0000
vt 0.6700 0.3794 0.0000
vt 0.6733 0.5315 0.0000
vt 0.6807 0.5969 0.0000
vt 0.6819 0.8269 0.0000
vt 0.6816 0.6328 0.0000
vt 0.7660 0.8847 0.0000
vt 0.6836 0.9050 0.0000
vt 0.4048 0.3635 0.0000
vt 0.4011 0.3195 0.0000
vt 0.9666 0.9592 0.0000
vt 0.7749 0.9657 0.0000
vt 0.7992 0.8828 0.0000
vt 0.9596 0.8817 0.0000
vt 0.9746 0.6263 0.0000
vt 0.3415 0.5070 0.0000
vt 2.3840 1.4268 0.0000
vt 2.3842 1.4265 0.0000
vt 2.3835 1.4205 0.0000
vt 0.1019 0.8879 0.0000
vt 0.1608 0.8207 0.0000
vt 0.1620 0.5786 0.0000
vt 0.0584 0.5786 0.0000
vt 0.5649 0.8685 0.0000
vt 0.5742 0.8275 0.0000
vt 0.6032 0.6524 0.0000
vt 0.5745 0.5061 0.0000
vt 0.6016 0.7102 0.0000
vt 0.1465 0.2794 0.0000
vt 0.0820 0.2781 0.0000
vt 0.6587 0.7247 0.0000
vt 0.6516 0.6605 0.0000
vt 0.6209 0.8229 0.0000
vt 0.6097 0.8751 0.0000
# 150 texture coords

o 1
g 1
usemtl 01___Default
s off
f 1/1/1 2/2/2 3/3/3 4/4/4 
f 5/5/5 6/6/6 7/7/7 8/8/8 
f 9/9/9 10/10/10 11/11/11 12/12/12 
f 13/13/13 14/14/14 15/15/15 16/16/16 
f 5/5/5 17/17/17 18/18/18 6/6/6 
f 19/19/19 20/20/20 21/21/4 4/22/4 
f 22/23/1 23/24/21 24/25/21 25/26/1 
f 1/1/1 25/26/1 26/27/22 2/2/2 
f 9/9/9 27/28/23 28/29/24 10/10/10 
f 22/23/1 29/30/25 30/31/26 23/24/21 
f 6/6/6 18/18/18 27/28/23 9/9/9 
f 31/32/1 22/23/1 25/26/1 1/1/1 
f 18/18/18 32/33/27 33/34/28 27/28/23 
f 8/35/8 19/19/19 4/22/4 3/36/3 
f 6/6/6 9/9/9 12/12/12 7/7/7 
f 31/32/1 1/1/1 4/4/4 21/37/4 
f 7/38/7 12/39/12 19/19/19 8/35/8 
f 27/28/23 33/34/28 34/40/29 28/29/24 
f 10/10/10 28/29/24 16/41/16 35/42/30 
f 17/17/17 36/43/31 32/33/27 18/18/18 
f 12/39/12 11/44/11 20/20/20 19/19/19 
f 2/45/2 26/46/22 17/17/17 5/5/5 
f 10/10/10 35/42/30 20/47/20 11/11/11 
f 2/45/2 5/5/5 8/8/8 3/48/3 
f 35/49/30 37/50/32 38/51/33 20/52/20 
f 28/29/24 34/40/29 13/53/13 16/41/16 
f 25/26/1 24/25/21 39/54/34 26/27/22 
f 26/46/22 39/55/34 36/43/31 17/17/17 
f 40/56/1 41/57/1 42/58/1 43/59/21 
f 44/60/35 45/61/36 46/62/37 47/63/38 
f 43/59/21 42/58/1 48/64/39 49/65/40 
f 50/66/41 51/67/42 45/61/36 44/60/35 
f 52/68/21 24/25/21 23/24/21 53/69/21 
f 54/70/43 36/43/31 39/55/34 55/71/44 
f 56/72/45 33/34/28 32/33/27 57/73/46 
f 13/53/13 34/40/29 58/74/47 
f 55/75/44 39/54/34 24/25/21 52/68/21 
f 58/74/47 34/40/29 33/34/28 56/72/45 
f 57/73/46 32/33/27 36/43/31 54/70/43 
f 21/37/4 59/76/48 60/77/49 31/32/1 
f 42/58/1 61/78/50 62/79/51 48/64/39 
f 63/80/52 64/81/53 65/82/54 66/83/55 
f 67/84/56 13/85/13 58/86/47 68/87/57 
f 47/63/38 46/62/37 63/80/52 69/88/58 
f 49/89/40 48/90/39 51/67/42 50/66/41 
f 51/67/42 70/91/59 71/92/60 45/61/36 
f 72/93/1 73/94/61 40/56/1 
f 40/56/1 73/94/61 74/95/62 41/57/1 
f 75/96/63 65/97/54 64/98/53 76/99/64 
f 70/100/59 75/96/63 76/99/64 71/101/60 
f 62/102/51 77/103/65 78/104/66 70/100/67 
f 61/105/50 79/106/68 80/107/69 75/96/63 
f 66/108/55 81/109/70 82/110/71 83/111/72 
f 41/57/1 79/112/68 61/78/50 42/58/1 
f 46/62/37 76/113/64 64/81/53 63/80/52 
f 45/61/36 71/92/60 76/113/64 46/62/37 
f 48/90/39 62/114/51 70/115/67 51/67/42 
f 65/82/54 80/116/69 66/83/55 
f 37/50/32 60/117/49 59/118/48 38/51/33 
f 37/50/32 15/15/15 29/119/25 60/117/49 
f 15/15/15 14/14/14 30/120/26 29/119/25 
f 82/110/71 81/109/70 74/121/62 73/122/61 
f 81/109/70 84/123/73 85/124/74 74/121/62 
f 31/32/1 60/77/49 29/30/25 22/23/1 
f 20/20/20 38/125/33 59/126/48 21/21/4 
f 79/127/68 85/128/74 84/129/73 80/130/69 
f 16/16/16 15/15/15 37/50/32 35/49/30 
f 80/130/69 84/129/73 81/109/70 66/108/55 
f 67/131/56 82/110/71 14/14/14 13/13/13 
f 41/57/1 74/95/62 85/132/74 79/112/68 
f 80/107/69 65/97/54 75/96/63 
f 23/133/21 30/134/26 53/135/21 
f 77/103/65 86/136/75 87/137/76 78/104/66 
f 70/100/67 78/104/66 87/137/76 75/96/63 
f 61/78/50 86/138/75 77/139/65 62/79/51 
f 75/96/63 87/137/76 86/136/75 61/105/50 
f 88/140/77 49/89/40 50/66/41 89/141/78 
f 90/142/79 47/63/38 69/88/58 68/87/57 
f 66/83/55 83/143/72 69/88/58 63/80/52 
f 89/141/78 50/66/41 44/60/35 91/144/80 
f 92/145/1 43/59/21 49/65/40 88/146/77 
f 91/144/80 44/60/35 47/63/38 90/142/79 
f 72/93/1 40/56/1 43/59/21 92/145/1 
f 53/69/21 72/93/1 92/145/1 52/68/21 
f 57/147/46 91/144/80 90/142/79 56/148/45 
f 52/68/21 92/145/1 88/146/77 55/75/44 
f 54/149/43 89/141/78 91/144/80 57/147/46 
f 56/148/45 90/142/79 68/87/57 58/86/47 
f 55/150/44 88/140/77 89/141/78 54/149/43 
f 83/111/72 82/110/71 67/131/56 
f 14/14/14 82/110/71 73/122/61 30/120/26 
f 53/69/21 30/31/26 73/94/61 72/93/1 
f 83/143/72 67/84/56 68/87/57 69/88/58 
# 87 polygons - 6 triangles

